%TF.GenerationSoftware,KiCad,Pcbnew,7.0.7*%
%TF.CreationDate,2024-02-26T20:13:22+05:30*%
%TF.ProjectId,Arduino Traffic Light Controller,41726475-696e-46f2-9054-726166666963,v01*%
%TF.SameCoordinates,Original*%
%TF.FileFunction,Legend,Bot*%
%TF.FilePolarity,Positive*%
%FSLAX46Y46*%
G04 Gerber Fmt 4.6, Leading zero omitted, Abs format (unit mm)*
G04 Created by KiCad (PCBNEW 7.0.7) date 2024-02-26 20:13:22*
%MOMM*%
%LPD*%
G01*
G04 APERTURE LIST*
%ADD10C,0.150000*%
%ADD11C,0.120000*%
G04 APERTURE END LIST*
D10*
X147044819Y-111436666D02*
X147759104Y-111436666D01*
X147759104Y-111436666D02*
X147901961Y-111389047D01*
X147901961Y-111389047D02*
X147997200Y-111293809D01*
X147997200Y-111293809D02*
X148044819Y-111150952D01*
X148044819Y-111150952D02*
X148044819Y-111055714D01*
X147140057Y-111865238D02*
X147092438Y-111912857D01*
X147092438Y-111912857D02*
X147044819Y-112008095D01*
X147044819Y-112008095D02*
X147044819Y-112246190D01*
X147044819Y-112246190D02*
X147092438Y-112341428D01*
X147092438Y-112341428D02*
X147140057Y-112389047D01*
X147140057Y-112389047D02*
X147235295Y-112436666D01*
X147235295Y-112436666D02*
X147330533Y-112436666D01*
X147330533Y-112436666D02*
X147473390Y-112389047D01*
X147473390Y-112389047D02*
X148044819Y-111817619D01*
X148044819Y-111817619D02*
X148044819Y-112436666D01*
X158839819Y-88733333D02*
X158363628Y-88400000D01*
X158839819Y-88161905D02*
X157839819Y-88161905D01*
X157839819Y-88161905D02*
X157839819Y-88542857D01*
X157839819Y-88542857D02*
X157887438Y-88638095D01*
X157887438Y-88638095D02*
X157935057Y-88685714D01*
X157935057Y-88685714D02*
X158030295Y-88733333D01*
X158030295Y-88733333D02*
X158173152Y-88733333D01*
X158173152Y-88733333D02*
X158268390Y-88685714D01*
X158268390Y-88685714D02*
X158316009Y-88638095D01*
X158316009Y-88638095D02*
X158363628Y-88542857D01*
X158363628Y-88542857D02*
X158363628Y-88161905D01*
X157839819Y-89066667D02*
X157839819Y-89685714D01*
X157839819Y-89685714D02*
X158220771Y-89352381D01*
X158220771Y-89352381D02*
X158220771Y-89495238D01*
X158220771Y-89495238D02*
X158268390Y-89590476D01*
X158268390Y-89590476D02*
X158316009Y-89638095D01*
X158316009Y-89638095D02*
X158411247Y-89685714D01*
X158411247Y-89685714D02*
X158649342Y-89685714D01*
X158649342Y-89685714D02*
X158744580Y-89638095D01*
X158744580Y-89638095D02*
X158792200Y-89590476D01*
X158792200Y-89590476D02*
X158839819Y-89495238D01*
X158839819Y-89495238D02*
X158839819Y-89209524D01*
X158839819Y-89209524D02*
X158792200Y-89114286D01*
X158792200Y-89114286D02*
X158744580Y-89066667D01*
X153759819Y-88733333D02*
X153283628Y-88400000D01*
X153759819Y-88161905D02*
X152759819Y-88161905D01*
X152759819Y-88161905D02*
X152759819Y-88542857D01*
X152759819Y-88542857D02*
X152807438Y-88638095D01*
X152807438Y-88638095D02*
X152855057Y-88685714D01*
X152855057Y-88685714D02*
X152950295Y-88733333D01*
X152950295Y-88733333D02*
X153093152Y-88733333D01*
X153093152Y-88733333D02*
X153188390Y-88685714D01*
X153188390Y-88685714D02*
X153236009Y-88638095D01*
X153236009Y-88638095D02*
X153283628Y-88542857D01*
X153283628Y-88542857D02*
X153283628Y-88161905D01*
X152855057Y-89114286D02*
X152807438Y-89161905D01*
X152807438Y-89161905D02*
X152759819Y-89257143D01*
X152759819Y-89257143D02*
X152759819Y-89495238D01*
X152759819Y-89495238D02*
X152807438Y-89590476D01*
X152807438Y-89590476D02*
X152855057Y-89638095D01*
X152855057Y-89638095D02*
X152950295Y-89685714D01*
X152950295Y-89685714D02*
X153045533Y-89685714D01*
X153045533Y-89685714D02*
X153188390Y-89638095D01*
X153188390Y-89638095D02*
X153759819Y-89066667D01*
X153759819Y-89066667D02*
X153759819Y-89685714D01*
X149299819Y-88733333D02*
X148823628Y-88400000D01*
X149299819Y-88161905D02*
X148299819Y-88161905D01*
X148299819Y-88161905D02*
X148299819Y-88542857D01*
X148299819Y-88542857D02*
X148347438Y-88638095D01*
X148347438Y-88638095D02*
X148395057Y-88685714D01*
X148395057Y-88685714D02*
X148490295Y-88733333D01*
X148490295Y-88733333D02*
X148633152Y-88733333D01*
X148633152Y-88733333D02*
X148728390Y-88685714D01*
X148728390Y-88685714D02*
X148776009Y-88638095D01*
X148776009Y-88638095D02*
X148823628Y-88542857D01*
X148823628Y-88542857D02*
X148823628Y-88161905D01*
X149299819Y-89685714D02*
X149299819Y-89114286D01*
X149299819Y-89400000D02*
X148299819Y-89400000D01*
X148299819Y-89400000D02*
X148442676Y-89304762D01*
X148442676Y-89304762D02*
X148537914Y-89209524D01*
X148537914Y-89209524D02*
X148585533Y-89114286D01*
D11*
%TO.C,J2*%
X149480000Y-117485000D02*
X150240000Y-117485000D01*
X148530000Y-108825000D02*
X158810000Y-108825000D01*
X149540000Y-111485000D02*
X149540000Y-117485000D01*
X152020000Y-111485000D02*
X152020000Y-117485000D01*
X155320000Y-108427929D02*
X155320000Y-108825000D01*
X157100000Y-117485000D02*
X157860000Y-117485000D01*
X150240000Y-117485000D02*
X150240000Y-111485000D01*
X153670000Y-108825000D02*
X153670000Y-111485000D01*
X149480000Y-111485000D02*
X149480000Y-117485000D01*
X158810000Y-111485000D02*
X148530000Y-111485000D01*
X157860000Y-117485000D02*
X157860000Y-111485000D01*
X148590000Y-106115000D02*
X148590000Y-107385000D01*
X149480000Y-108495000D02*
X149480000Y-108825000D01*
X158810000Y-108825000D02*
X158810000Y-111485000D01*
X150140000Y-111485000D02*
X150140000Y-117485000D01*
X148530000Y-111485000D02*
X148530000Y-108825000D01*
X154560000Y-117485000D02*
X155320000Y-117485000D01*
X157100000Y-111485000D02*
X157100000Y-117485000D01*
X150240000Y-108495000D02*
X150240000Y-108825000D01*
X154560000Y-108427929D02*
X154560000Y-108825000D01*
X157860000Y-108427929D02*
X157860000Y-108825000D01*
X149660000Y-111485000D02*
X149660000Y-117485000D01*
X152780000Y-108427929D02*
X152780000Y-108825000D01*
X155320000Y-117485000D02*
X155320000Y-111485000D01*
X156210000Y-108825000D02*
X156210000Y-111485000D01*
X157100000Y-108427929D02*
X157100000Y-108825000D01*
X150020000Y-111485000D02*
X150020000Y-117485000D01*
X152020000Y-108427929D02*
X152020000Y-108825000D01*
X154560000Y-111485000D02*
X154560000Y-117485000D01*
X149780000Y-111485000D02*
X149780000Y-117485000D01*
X152780000Y-117485000D02*
X152780000Y-111485000D01*
X149900000Y-111485000D02*
X149900000Y-117485000D01*
X151130000Y-108825000D02*
X151130000Y-111485000D01*
X152020000Y-117485000D02*
X152780000Y-117485000D01*
X149860000Y-106115000D02*
X148590000Y-106115000D01*
%TO.C,R3*%
X156560000Y-92060000D02*
X156560000Y-95900000D01*
X158400000Y-92060000D02*
X158400000Y-95900000D01*
%TO.C,R2*%
X154835000Y-92060000D02*
X154835000Y-95900000D01*
X152995000Y-92060000D02*
X152995000Y-95900000D01*
%TO.C,R1*%
X149845000Y-92060000D02*
X149845000Y-95900000D01*
X151685000Y-92060000D02*
X151685000Y-95900000D01*
%TD*%
M02*
